<svg xmlns="http://www.w3.org/2000/svg" viewBox="0 0 829.45 183.6"><defs><style>.cls-1{fill:#595656;}</style></defs><title>アセット 1</title><g id="レイヤー_2" data-name="レイヤー 2"><g id="Layer_1" data-name="Layer 1"><path class="cls-1" d="M673.29,77.32c4.81-.82,7.47-5.06,7.21-9.91s-3.93-8.26-7.43-8.26h-68.4c-.5,0-.79-.35-.79-1V47.55c0-.66.42-.93,1.13-.93l71.6,0A19.56,19.56,0,0,1,694.9,60.25c2.92,9.14,1.73,27-15.65,29.89-6.78,1.12-16,2.35-32,5.44-10.26,2-16.82,4.35-20.49,7.59-4.94,4.39-6.43,7-6.43,15.45,0,.63.25.82.77.82H694.8a1.16,1.16,0,0,1,1.25,1.31v10a1.17,1.17,0,0,1-1.29,1.17H605a1.09,1.09,0,0,1-1.12-1.15V119.91c0-10.2,1.48-17,7.55-23.33C618,89.66,627.9,85.41,646.6,81.92c9.4-1.76,19.42-3.36,26.69-4.6m-410.75,42a1,1,0,0,1-1.09-1.09V47.46a1,1,0,0,0-1.08-1.08H246.9a1,1,0,0,0-1.09,1.08v83.36a1,1,0,0,0,1.09,1.08h80.45c.95,0,1.31-.45,1.31-1.11V120.41c0-.82-.46-1-1.19-1ZM370.68,131.9a1.16,1.16,0,0,0,1.23-1.29V87c0-.72-.6-1.07-1.33-1.07H357.35A.94.94,0,0,0,356.27,87v43.85c0,.73.36,1.09.94,1.09ZM356.27,75.12a1,1,0,0,0,1.08,1.09h13.47a1,1,0,0,0,1.09-1.09V62.05A1,1,0,0,0,370.82,61H357.35a1,1,0,0,0-1.08,1.09Zm83.29,56.78,38.62-70c.35-.64.11-.91-.47-.91H463.78c-.74,0-.84,0-1.19.66l-23.17,41.87-.64.49c-.39,0-.47-.17-.64-.49l-23.09-41.8c-.35-.65-.53-.73-1.25-.73h-14c-.54,0-.73.43-.41.95l38.59,70a.86.86,0,0,0,1.56,0M558,100h12.69l.47.54a37.34,37.34,0,1,1-7.43-26.74c.23.31.42.61,0,1l-41.53,41.53,0,.59a23.64,23.64,0,0,0,35.16-16.49ZM543.62,74.81A23.7,23.7,0,0,0,510.3,96.49a22.76,22.76,0,0,0,2.05,9.59l.64.13,30.77-30.78ZM726.72,48A1.3,1.3,0,0,1,728,46.64h54.18c18,0,26.25,3.5,34.65,11s12.59,18.17,12.59,31.66-4.2,24.18-12.59,31.65-16.64,11-34.65,11H728a1.3,1.3,0,0,1-1.31-1.31Zm15.72,69.63c0,1.18.59,1.8,1.53,1.8h41.35c18.6,0,28.17-11.12,28.17-30.13s-9.57-30.11-28.17-30.11H744c-.94,0-1.53.62-1.53,1.81Z"/><path class="cls-1" d="M.8,50.57a.61.61,0,0,0-.8.62V130c0,.45.32.64.72.41L16,121.51a1.6,1.6,0,0,0,.71-1.24V55.36a1.11,1.11,0,0,0-.8-1Z"/><path class="cls-1" d="M26.94,23.85a.7.7,0,0,0-1,.69V159.13c0,.6.41.83.92.49l28-18.71a2.31,2.31,0,0,0,.92-1.72V36.44a1.75,1.75,0,0,0-1-1.51Z"/><path class="cls-1" d="M141.7,141.72a3.86,3.86,0,0,1-1.31,2.68L90.71,183.31c-.72.56-1.31.28-1.31-.63V1c0-.91.63-1.26,1.4-.77l49.5,31.14a3.33,3.33,0,0,1,1.4,2.54Z"/></g></g></svg>