<svg id="Layer_1" data-name="Layer 1" xmlns="http://www.w3.org/2000/svg" viewBox="0 0 1000 256.7"><defs><style>.cls-1{fill:#221e1f;}.cls-2{fill:#00b6f1;}</style></defs><title>Live2D logo rectangle</title><path class="cls-1" d="M758.56,116.82c4.81-.82,7.47-5.06,7.21-9.91s-3.93-8.26-7.42-8.26H690c-.51,0-.8-.36-.8-1.05V87.05c0-.67.42-.94,1.14-.94l71.59,0a19.56,19.56,0,0,1,18.29,13.61c2.92,9.14,1.73,27-15.65,29.88-6.78,1.13-16,2.36-32,5.44-10.25,2-16.82,4.36-20.48,7.6-4.94,4.38-6.44,7.05-6.44,15.45,0,.62.25.82.76.82h73.7a1.17,1.17,0,0,1,1.26,1.31v10A1.18,1.18,0,0,1,780,171.4l-89.8,0,0,0a1.1,1.1,0,0,1-1.12-1.15V159.4c0-10.19,1.48-17,7.55-23.33,6.62-6.91,16.47-11.16,35.17-14.66C741.27,119.65,751.29,118.05,758.56,116.82Zm-410.74,42a1,1,0,0,1-1.09-1.09V87a1,1,0,0,0-1.09-1.08H332.17A1,1,0,0,0,331.09,87v83.35a1,1,0,0,0,1.08,1.09h80.46c.94,0,1.29-.45,1.29-1.11V159.91c0-.83-.45-1-1.18-1ZM456,171.4a1.16,1.16,0,0,0,1.23-1.29V126.46c0-.72-.6-1.08-1.32-1.08H442.63a1,1,0,0,0-1.09,1.08v43.85c0,.72.36,1.09.94,1.09Zm-14.41-56.78a1,1,0,0,0,1.09,1.08h13.46a1,1,0,0,0,1.09-1.08V101.54a1,1,0,0,0-1.09-1.08H442.63a1,1,0,0,0-1.09,1.08Zm83.29,56.78,38.62-70c.35-.64.11-.91-.46-.91H549c-.72,0-.83,0-1.19.65L524.7,143c-.18.32-.31.49-.64.49s-.48-.17-.65-.49l-23.08-41.81c-.36-.64-.53-.72-1.26-.72h-14c-.54,0-.73.44-.42,1l38.6,70A.85.85,0,0,0,524.83,171.4Zm118.4-31.86h12.7a.43.43,0,0,1,.47.53A37.35,37.35,0,1,1,649,113.34c.23.31.42.61,0,1l-41.54,41.54c-.21.21-.21.45,0,.59A23.64,23.64,0,0,0,642.63,140,.55.55,0,0,1,643.23,139.54Zm-14.35-25.23A23.69,23.69,0,0,0,595.57,136a23,23,0,0,0,2,9.6c.16.34.36.41.64.12L629,114.93C629.24,114.72,629.18,114.45,628.88,114.31ZM812,87.45a1.31,1.31,0,0,1,1.32-1.31h54.17c18,0,26.26,3.5,34.66,11s12.6,18.17,12.6,31.65-4.21,24.19-12.6,31.65-16.64,11-34.66,11H813.3a1.31,1.31,0,0,1-1.32-1.32Zm15.73,69.64c0,1.18.59,1.8,1.53,1.8H870.6c18.6,0,28.16-11.13,28.16-30.14s-9.56-30.1-28.16-30.1H829.24c-.94,0-1.53.62-1.53,1.8Z" transform="translate(0 -0.01)"/><path class="cls-2" d="M86.08,90.07a.62.62,0,0,0-.81.63v78.83a.44.44,0,0,0,.72.41L101.24,161a1.59,1.59,0,0,0,.72-1.25V94.85a1.11,1.11,0,0,0-.8-1Z" transform="translate(0 -0.01)"/><path class="cls-2" d="M112.22,63.34a.7.7,0,0,0-1,.7V198.63c0,.61.41.83.92.49l28-18.72a2.3,2.3,0,0,0,.92-1.71V75.93a1.74,1.74,0,0,0-1-1.51Z" transform="translate(0 -0.01)"/><path class="cls-2" d="M227,181.22a3.88,3.88,0,0,1-1.3,2.68L176,222.81c-.72.56-1.3.28-1.3-.63V40.49c0-.91.63-1.26,1.4-.77l49.49,31.13a3.36,3.36,0,0,1,1.4,2.54Z" transform="translate(0 -0.01)"/><path class="cls-1" d="M999,1v254.7H1V1H999m1-1H0v256.7H1000V0Z" transform="translate(0 -0.01)"/></svg>