<svg xmlns="http://www.w3.org/2000/svg" viewBox="0 0 829.45 183.6"><defs><style>.cls-1{fill:#221e1f;}.cls-2{fill:#00b6f1;}</style></defs><title>アセット 1</title><g id="レイヤー_2" data-name="レイヤー 2"><g id="Layer_1" data-name="Layer 1"><path class="cls-1" d="M673.29,77.32c4.8-.82,7.47-5.06,7.21-9.9s-3.93-8.27-7.43-8.27H604.68c-.51,0-.8-.35-.8-1V47.55c0-.67.42-.93,1.13-.93l71.6,0A19.57,19.57,0,0,1,694.9,60.25c2.92,9.14,1.73,27-15.65,29.89-6.79,1.12-16,2.35-32,5.43-10.25,2-16.82,4.36-20.48,7.6-4.95,4.39-6.45,7-6.45,15.45,0,.62.26.82.77.82h73.7a1.16,1.16,0,0,1,1.25,1.31v10a1.18,1.18,0,0,1-1.29,1.17l-89.79,0,0,0a1.1,1.1,0,0,1-1.12-1.15V119.9c0-10.19,1.48-17,7.55-23.32,6.61-6.92,16.47-11.17,35.16-14.66C656,80.15,666,78.56,673.29,77.32Zm-410.75,42a1,1,0,0,1-1.08-1.09V47.46a1,1,0,0,0-1.09-1.08H246.9a1,1,0,0,0-1.09,1.08v83.35a1,1,0,0,0,1.09,1.09h80.45c.95,0,1.3-.45,1.3-1.11V120.41c0-.82-.45-1-1.18-1ZM370.68,131.9a1.17,1.17,0,0,0,1.23-1.29V87c0-.73-.6-1.08-1.33-1.08H357.35A1,1,0,0,0,356.26,87v43.84c0,.73.37,1.09.95,1.09ZM356.26,75.12a1,1,0,0,0,1.09,1.09h13.47a1,1,0,0,0,1.09-1.09V62.05A1,1,0,0,0,370.82,61H357.35a1,1,0,0,0-1.09,1.09Zm83.3,56.78,38.62-70c.34-.64.1-.91-.47-.91H463.77c-.73,0-.83,0-1.19.65l-23.16,41.88c-.18.32-.3.49-.64.49s-.47-.17-.64-.49L415.05,61.68c-.35-.64-.53-.72-1.25-.72h-14c-.54,0-.72.44-.41.95l38.59,70A.86.86,0,0,0,439.56,131.9ZM558,100h12.7a.44.44,0,0,1,.47.53,37.37,37.37,0,1,1-7.43-26.72c.23.3.42.6,0,1l-41.53,41.54c-.21.2-.22.44,0,.58a23.64,23.64,0,0,0,35.17-16.49A.56.56,0,0,1,558,100ZM543.61,74.82a23.47,23.47,0,0,0-9.6-2A23.72,23.72,0,0,0,510.3,96.49a22.76,22.76,0,0,0,2.05,9.59c.15.34.35.41.64.13l30.77-30.78C544,75.22,543.9,75,543.61,74.82ZM726.71,48A1.31,1.31,0,0,1,728,46.64H782.2c18,0,26.25,3.5,34.65,11s12.6,18.17,12.6,31.65-4.2,24.19-12.6,31.66-16.63,11-34.65,11H728a1.31,1.31,0,0,1-1.31-1.31Zm15.73,69.63c0,1.18.59,1.8,1.53,1.8h41.35c18.6,0,28.17-11.12,28.17-30.14s-9.57-30.1-28.17-30.1H744c-.94,0-1.53.62-1.53,1.8Z"/><path class="cls-2" d="M.8,50.57a.62.62,0,0,0-.8.63V130c0,.45.32.64.71.41L16,121.51a1.61,1.61,0,0,0,.71-1.25V55.35a1.11,1.11,0,0,0-.8-1Z"/><path class="cls-2" d="M27,23.85a.7.7,0,0,0-1,.69V159.13c0,.61.42.83.92.49l28-18.72a2.31,2.31,0,0,0,.91-1.71V36.43a1.77,1.77,0,0,0-1-1.51Z"/><path class="cls-2" d="M141.7,141.72a3.86,3.86,0,0,1-1.31,2.68L90.7,183.31c-.71.56-1.3.28-1.3-.63V1c0-.91.63-1.26,1.4-.77l49.49,31.14a3.31,3.31,0,0,1,1.41,2.53Z"/></g></g></svg>